<svg width="114" height="16" viewBox="0 0 114 16" fill="none" xmlns="http://www.w3.org/2000/svg">
<path fill-rule="evenodd" clip-rule="evenodd" d="M10.71 0C11.6463 0 12.5204 0.106183 13.3271 0.326172L13.3262 0.327148C14.1292 0.532798 14.8417 0.845596 15.4473 1.28027C16.0631 1.69954 16.5528 2.22678 16.9033 2.86133L17.0303 3.10547C17.3066 3.68365 17.4404 4.31652 17.4404 4.99023V5.80957C17.4404 6.57957 17.2658 7.29913 16.9072 7.95117L16.9033 7.95801C16.5502 8.58402 16.0569 9.11231 15.4404 9.54395L15.4365 9.54688C14.8342 9.96376 14.1262 10.2752 13.3271 10.4932L13.3154 10.4971C12.5128 10.7014 11.6425 10.7998 10.71 10.7998H5.47266L5.2998 10.291L5.24023 10.1143V15.1201H1V0H10.71ZM5.24023 6.93945H10.6104C11.7239 6.93941 12.3495 6.74701 12.6553 6.51367C12.9618 6.27958 13.1201 5.97389 13.1201 5.50977V5.29004C13.12 4.82603 12.9619 4.52018 12.6553 4.28613C12.3495 4.05285 11.7237 3.86039 10.6104 3.86035H5.24023V6.93945Z" fill="white"/>
<path d="M23.5752 15.1201H19.2559V0H23.5752V15.1201Z" fill="white"/>
<path d="M47.9688 6.23926L55.0146 0H59.4287V1.14062L59.1846 1.36328L52.584 7.39648L60.0889 13.9492V15.1201H55.7031L55.4932 14.9414L47.9688 8.55371V15.1201H43.7285V0H47.9688V6.23926Z" fill="white"/>
<path d="M75.4365 3.87988H70.1445V15.1201H65.8643V3.87988H59.9443V0.0195312H76.7119L75.4365 3.87988Z" fill="white"/>
<path d="M93.7314 3.78027H82.585V5.47949H94.5645L93.2715 9.25977H82.585V11.3398H95.0537L93.9033 14.6182L93.7266 15.1201H78.3457V0H95.0244L93.7314 3.78027Z" fill="white"/>
<path fill-rule="evenodd" clip-rule="evenodd" d="M106.84 0C107.768 0 108.634 0.0915804 109.433 0.280273C110.235 0.46999 110.948 0.760994 111.556 1.16602C112.177 1.55763 112.674 2.05941 113.029 2.67383C113.396 3.30743 113.57 4.02053 113.57 4.79004V5.50977C113.57 6.1462 113.441 6.75301 113.182 7.32129L113.179 7.3291C112.923 7.87268 112.563 8.34957 112.109 8.75879L112.11 8.75977C111.665 9.17296 111.136 9.50378 110.533 9.75977C110.344 9.84011 110.15 9.91012 109.952 9.97363L113.75 13.9912V15.1201H109.4L104.82 10.3398H101.574L101.406 9.82129L101.37 9.70898V15.1201H97.1299V0H106.84ZM101.37 6.67969H106.74C107.85 6.67966 108.471 6.4813 108.775 6.24121C109.095 5.98881 109.25 5.67526 109.25 5.22949V5.08984C109.25 4.70479 109.114 4.45238 108.816 4.24902C108.504 4.0352 107.863 3.86038 106.74 3.86035H101.37V6.67969Z" fill="white"/>
<path d="M41.1508 12.401C39.9174 13.6222 38.2504 14.4876 36.3886 14.8733C34.5268 15.2589 32.5659 15.145 30.7868 14.5478C29.0078 13.9507 27.5019 12.9009 26.4851 11.549C25.4683 10.1971 24.9928 8.61243 25.1266 7.02218C25.2605 5.43192 25.9969 3.91769 27.2302 2.69651C28.4636 1.47533 30.1306 0.609889 31.9924 0.224232C33.8542 -0.161425 35.8151 -0.0475015 37.5942 0.549674C39.3732 1.14685 40.8791 2.19662 41.8959 3.54852L34.1905 7.54875L41.1508 12.401Z" fill="#FACC15"/>
<path d="M37.8262 3.20875C37.8262 3.52143 37.5211 3.7749 37.1448 3.7749C36.7684 3.7749 36.4633 3.52143 36.4633 3.20875C36.4633 2.89607 36.7684 2.64259 37.1448 2.64259C37.5211 2.64259 37.8262 2.89607 37.8262 3.20875Z" fill="#0C0A09"/>
<path d="M35.0996 3.20875C35.0996 3.52143 34.7945 3.7749 34.4182 3.7749C34.0418 3.7749 33.7367 3.52143 33.7367 3.20875C33.7367 2.89607 34.0418 2.64259 34.4182 2.64259C34.7945 2.64259 35.0996 2.89607 35.0996 3.20875Z" fill="#0C0A09"/>
</svg>
